<svg width="24" height="24" viewBox="0 0 24 24" fill="none" xmlns="http://www.w3.org/2000/svg">
<path d="M11.7643 21.2159C12.447 21.2159 12.939 20.7137 12.939 20.0408V4.01951C12.939 3.34665 12.447 2.78394 11.7437 2.78394C11.2517 2.78394 10.9303 3.02522 10.3877 3.50736L5.66698 7.69579C5.60655 7.75579 5.51612 7.78622 5.41584 7.78622H2.43255C1.00626 7.78622 0.302979 8.49936 0.302979 10.0161V14.0142C0.302979 15.5314 1.00584 16.2441 2.43255 16.2441H5.41541C5.51612 16.2441 5.60655 16.2741 5.66698 16.3345L10.3877 20.5637C10.8801 21.0051 11.2718 21.2164 11.7638 21.2164M20.4424 19.1674C20.8337 19.4284 21.3158 19.3281 21.5974 18.9261C22.923 17.0781 23.6965 14.6172 23.6965 12.0458C23.6965 9.46408 22.9333 7.00322 21.5974 5.15479C21.306 4.76308 20.8337 4.66279 20.442 4.92379C20.0606 5.18522 20.0001 5.67722 20.3014 6.10922C21.3964 7.71636 22.0796 9.82579 22.0796 12.0458C22.0796 14.2658 21.4165 16.3949 20.3014 17.9819C20.01 18.4139 20.061 18.9059 20.4424 19.1674ZM11.1805 19.0971C11.1304 19.0971 11.07 19.0671 11.0095 19.0067L6.56141 14.9982C6.32012 14.7771 6.11912 14.7269 5.84826 14.7269H2.50284C2.11112 14.7269 1.91998 14.5461 1.91998 14.1441V9.88536C1.91998 9.49365 2.11112 9.30294 2.50284 9.30294H5.84784C6.11869 9.30294 6.30984 9.26265 6.56098 9.03165L11.0104 4.99365C11.061 4.95379 11.121 4.91351 11.1814 4.91351C11.2714 4.91351 11.322 4.97351 11.322 5.05408V18.9458C11.322 19.0362 11.2718 19.0966 11.1814 19.0966M16.4348 16.4549C16.7764 16.6958 17.2684 16.6152 17.5598 16.2235C18.3433 15.1692 18.8155 13.6221 18.8155 12.0449C18.8155 10.4678 18.3334 8.93136 17.5598 7.85651C17.2684 7.46479 16.7863 7.38422 16.4348 7.62508C15.9925 7.91651 15.9424 8.42908 16.2638 8.87094C16.8467 9.65436 17.1981 10.8496 17.1981 12.0449C17.1981 13.2406 16.8265 14.4359 16.254 15.2292C15.9527 15.6612 16.0028 16.1532 16.4348 16.4549Z" fill="#ffffff"/>
</svg>
