<svg width="20" height="20" viewBox="0 0 20 20" fill="none" xmlns="http://www.w3.org/2000/svg">
<path d="M17.7063 6.70615L14.7063 9.70615C14.3156 10.0968 13.6813 10.0968 13.2906 9.70615C12.9 9.31553 12.9 8.68115 13.2906 8.29053L14.5844 6.9999H3.00002C2.4469 6.9999 2.00002 6.55303 2.00002 5.9999C2.00002 5.44678 2.4469 4.9999 3.00002 4.9999H14.5844L13.2906 3.70615C12.9 3.31553 12.9 2.68115 13.2906 2.29053C13.6813 1.8999 14.3156 1.8999 14.7063 2.29053L17.7063 5.29053C18.0969 5.68115 18.0969 6.31553 17.7063 6.70615ZM5.29065 17.7062L2.29065 14.7062C1.90002 14.3155 1.90002 13.6812 2.29065 13.2905L5.29065 10.2905C5.68127 9.8999 6.31565 9.8999 6.70627 10.2905C7.0969 10.6812 7.0969 11.3155 6.70627 11.7062L5.41565 12.9999H17C17.5531 12.9999 18 13.4468 18 13.9999C18 14.553 17.5531 14.9999 17 14.9999H5.41565L6.7094 16.2937C7.10002 16.6843 7.10002 17.3187 6.7094 17.7093C6.31877 18.0999 5.6844 18.0999 5.29377 17.7093L5.29065 17.7062Z" fill="#ffffff"/>
</svg>
